<mxfile host="app.diagrams.net" agent="Mozilla/5.0 (Windows NT 10.0; Win64; x64) AppleWebKit/537.36 (KHTML, like Gecko) Chrome/131.0.0.0 Safari/537.36" version="26.0.5">
  <diagram name="Page-1" id="XTMSRbrgKVGLjsH9X8_s">
    <mxGraphModel dx="1114" dy="616" grid="1" gridSize="10" guides="1" tooltips="1" connect="1" arrows="1" fold="1" page="1" pageScale="1" pageWidth="850" pageHeight="1100" math="0" shadow="0">
      <root>
        <mxCell id="0" />
        <mxCell id="1" parent="0" />
        <mxCell id="2" value="Tamagotchi" style="whiteSpace=wrap;strokeWidth=2;" parent="1" vertex="1">
          <mxGeometry x="8" y="1321" width="815" height="104" as="geometry" />
        </mxCell>
        <mxCell id="3" value="Game" style="whiteSpace=wrap;strokeWidth=2;" parent="1" vertex="1">
          <mxGeometry x="843" y="8" width="1075" height="1546" as="geometry" />
        </mxCell>
        <mxCell id="4" value="Game" style="fillColor=none;strokeColor=none;" parent="1" vertex="1">
          <mxGeometry x="1160" y="33" width="101" height="54" as="geometry" />
        </mxCell>
        <mxCell id="5" value="Initialize" style="rounded=1;arcSize=40;strokeWidth=2" parent="1" vertex="1">
          <mxGeometry x="1165" y="159" width="93" height="54" as="geometry" />
        </mxCell>
        <mxCell id="6" value="Need Food?" style="rhombus;strokeWidth=2;whiteSpace=wrap;" parent="1" vertex="1">
          <mxGeometry x="1143" y="263" width="136" height="136" as="geometry" />
        </mxCell>
        <mxCell id="7" value="Feed Tamagotchi" style="fillColor=none;strokeColor=none;" parent="1" vertex="1">
          <mxGeometry x="878" y="1217" width="181" height="54" as="geometry" />
        </mxCell>
        <mxCell id="8" value="Need Discipline?" style="rhombus;strokeWidth=2;whiteSpace=wrap;" parent="1" vertex="1">
          <mxGeometry x="1249" y="471" width="170" height="170" as="geometry" />
        </mxCell>
        <mxCell id="9" value="Give Time Out" style="fillColor=none;strokeColor=none;" parent="1" vertex="1">
          <mxGeometry x="1372" y="1217" width="162" height="54" as="geometry" />
        </mxCell>
        <mxCell id="10" value="Need Attention?" style="rhombus;strokeWidth=2;whiteSpace=wrap;" parent="1" vertex="1">
          <mxGeometry x="1131" y="714" width="168" height="168" as="geometry" />
        </mxCell>
        <mxCell id="11" value="Play with Tamagotchi" style="fillColor=none;strokeColor=none;" parent="1" vertex="1">
          <mxGeometry x="1109" y="1217" width="212" height="54" as="geometry" />
        </mxCell>
        <mxCell id="12" value="Is Tamagotchi Sick?" style="rhombus;strokeWidth=2;whiteSpace=wrap;" parent="1" vertex="1">
          <mxGeometry x="1569" y="955" width="190" height="190" as="geometry" />
        </mxCell>
        <mxCell id="13" value="Visit Vet" style="fillColor=none;strokeColor=none;" parent="1" vertex="1">
          <mxGeometry x="1604" y="1217" width="119" height="54" as="geometry" />
        </mxCell>
        <mxCell id="14" value="Continue with Game" style="fillColor=none;strokeColor=none;" parent="1" vertex="1">
          <mxGeometry x="1677" y="1346" width="206" height="54" as="geometry" />
        </mxCell>
        <mxCell id="15" value="End Game" style="fillColor=none;strokeColor=none;" parent="1" vertex="1">
          <mxGeometry x="1714" y="1475" width="132" height="54" as="geometry" />
        </mxCell>
        <mxCell id="16" value="Eat" style="rounded=1;arcSize=40;strokeWidth=2" parent="1" vertex="1">
          <mxGeometry x="43" y="1346" width="53" height="54" as="geometry" />
        </mxCell>
        <mxCell id="17" value="Obey Commands" style="fillColor=none;strokeColor=none;" parent="1" vertex="1">
          <mxGeometry x="146" y="1346" width="178" height="54" as="geometry" />
        </mxCell>
        <mxCell id="18" value="Display Symptoms" style="fillColor=none;strokeColor=none;" parent="1" vertex="1">
          <mxGeometry x="375" y="1346" width="188" height="54" as="geometry" />
        </mxCell>
        <mxCell id="19" value="Administer Medicine" style="rounded=1;arcSize=40;strokeWidth=2" parent="1" vertex="1">
          <mxGeometry x="613" y="1346" width="176" height="54" as="geometry" />
        </mxCell>
        <mxCell id="20" value="Start" style="curved=1;startArrow=circle;startFill=0;endArrow=block;exitX=0.5;exitY=1;entryX=0.49;entryY=0.01;" parent="1" source="4" target="5" edge="1">
          <mxGeometry relative="1" as="geometry">
            <Array as="points" />
          </mxGeometry>
        </mxCell>
        <mxCell id="21" value="" style="curved=1;startArrow=none;endArrow=block;exitX=0.49;exitY=1.01;entryX=0.5;entryY=0;" parent="1" source="5" target="6" edge="1">
          <mxGeometry relative="1" as="geometry">
            <Array as="points" />
          </mxGeometry>
        </mxCell>
        <mxCell id="22" value="Yes" style="curved=1;startArrow=none;endArrow=circle;endFill=0;exitX=0;exitY=0.72;entryX=0.5;entryY=0;" parent="1" source="6" target="7" edge="1">
          <mxGeometry relative="1" as="geometry">
            <Array as="points">
              <mxPoint x="969" y="435" />
            </Array>
          </mxGeometry>
        </mxCell>
        <mxCell id="23" value="No" style="curved=1;startArrow=none;endArrow=block;exitX=1;exitY=0.92;entryX=0.5;entryY=0;" parent="1" source="6" target="8" edge="1">
          <mxGeometry relative="1" as="geometry">
            <Array as="points">
              <mxPoint x="1334" y="435" />
            </Array>
          </mxGeometry>
        </mxCell>
        <mxCell id="24" value="Yes" style="curved=1;startArrow=none;endArrow=circle;endFill=0;exitX=0.99;exitY=1;entryX=0.5;entryY=0;" parent="1" source="8" target="9" edge="1">
          <mxGeometry relative="1" as="geometry">
            <Array as="points">
              <mxPoint x="1453" y="678" />
            </Array>
          </mxGeometry>
        </mxCell>
        <mxCell id="25" value="No" style="curved=1;startArrow=none;endArrow=block;exitX=0.01;exitY=1;entryX=0.5;entryY=0;" parent="1" source="8" target="10" edge="1">
          <mxGeometry relative="1" as="geometry">
            <Array as="points">
              <mxPoint x="1215" y="678" />
            </Array>
          </mxGeometry>
        </mxCell>
        <mxCell id="26" value="Yes" style="curved=1;startArrow=none;endArrow=circle;endFill=0;exitX=0.5;exitY=1;entryX=0.5;entryY=0;" parent="1" source="10" target="11" edge="1">
          <mxGeometry relative="1" as="geometry">
            <Array as="points" />
          </mxGeometry>
        </mxCell>
        <mxCell id="27" value="No" style="curved=1;startArrow=none;endArrow=block;exitX=1;exitY=0.64;entryX=0.5;entryY=0;" parent="1" source="10" target="12" edge="1">
          <mxGeometry relative="1" as="geometry">
            <Array as="points">
              <mxPoint x="1664" y="918" />
            </Array>
          </mxGeometry>
        </mxCell>
        <mxCell id="28" value="Yes" style="curved=1;startArrow=none;endArrow=circle;endFill=0;exitX=0.5;exitY=1;entryX=0.5;entryY=0;" parent="1" source="12" target="13" edge="1">
          <mxGeometry relative="1" as="geometry">
            <Array as="points" />
          </mxGeometry>
        </mxCell>
        <mxCell id="29" value="No" style="curved=1;startArrow=none;endArrow=circle;endFill=0;exitX=0.9;exitY=1;entryX=0.47;entryY=0;" parent="1" source="12" target="14" edge="1">
          <mxGeometry relative="1" as="geometry">
            <Array as="points">
              <mxPoint x="1770" y="1181" />
              <mxPoint x="1770" y="1321" />
            </Array>
          </mxGeometry>
        </mxCell>
        <mxCell id="30" value="" style="curved=1;startArrow=none;endArrow=block;exitX=1;exitY=0.83;entryX=0.65;entryY=0;" parent="1" source="13" target="14" edge="1">
          <mxGeometry relative="1" as="geometry">
            <Array as="points">
              <mxPoint x="1839" y="1296" />
              <mxPoint x="1839" y="1321" />
            </Array>
          </mxGeometry>
        </mxCell>
        <mxCell id="31" value="" style="curved=1;startArrow=none;endArrow=circle;endFill=0;exitX=0.5;exitY=1;entryX=0.5;entryY=0;" parent="1" source="14" target="15" edge="1">
          <mxGeometry relative="1" as="geometry">
            <Array as="points" />
          </mxGeometry>
        </mxCell>
        <mxCell id="32" value="" style="curved=1;startArrow=none;endArrow=block;exitX=0.5;exitY=1;entryX=1.01;entryY=0.47;" parent="1" source="7" target="16" edge="1">
          <mxGeometry relative="1" as="geometry">
            <Array as="points">
              <mxPoint x="969" y="1321" />
            </Array>
          </mxGeometry>
        </mxCell>
        <mxCell id="33" value="" style="curved=1;startArrow=none;endArrow=circle;endFill=0;exitX=0.5;exitY=1;entryX=1;entryY=0.43;" parent="1" source="9" target="17" edge="1">
          <mxGeometry relative="1" as="geometry">
            <Array as="points">
              <mxPoint x="1453" y="1321" />
            </Array>
          </mxGeometry>
        </mxCell>
        <mxCell id="34" value="" style="curved=1;startArrow=none;endArrow=block;exitX=0.5;exitY=1;entryX=1.01;entryY=0.48;" parent="1" source="11" target="16" edge="1">
          <mxGeometry relative="1" as="geometry">
            <Array as="points">
              <mxPoint x="1215" y="1321" />
            </Array>
          </mxGeometry>
        </mxCell>
        <mxCell id="35" value="" style="curved=1;startArrow=none;endArrow=circle;endFill=0;exitX=0.14;exitY=1;entryX=1;entryY=0.42;" parent="1" source="12" target="18" edge="1">
          <mxGeometry relative="1" as="geometry">
            <Array as="points">
              <mxPoint x="1569" y="1181" />
              <mxPoint x="1569" y="1321" />
            </Array>
          </mxGeometry>
        </mxCell>
        <mxCell id="36" value="" style="curved=1;startArrow=none;endArrow=block;exitX=0.5;exitY=1;entryX=1;entryY=0.41;" parent="1" source="13" target="19" edge="1">
          <mxGeometry relative="1" as="geometry">
            <Array as="points">
              <mxPoint x="1664" y="1321" />
            </Array>
          </mxGeometry>
        </mxCell>
        <mxCell id="5bxqDrjg2q5eDlx1BoxY-36" value="" style="rounded=0;whiteSpace=wrap;html=1;" parent="1" vertex="1">
          <mxGeometry x="60" y="400" width="320" height="240" as="geometry" />
        </mxCell>
        <mxCell id="5bxqDrjg2q5eDlx1BoxY-37" value="The Puglist" style="text;html=1;align=center;verticalAlign=middle;whiteSpace=wrap;rounded=0;" parent="1" vertex="1">
          <mxGeometry x="180" y="679" width="60" height="30" as="geometry" />
        </mxCell>
        <mxCell id="5bxqDrjg2q5eDlx1BoxY-40" value="" style="triangle;whiteSpace=wrap;html=1;rotation=-90;" parent="1" vertex="1">
          <mxGeometry x="172.5" y="432.5" width="95" height="320" as="geometry" />
        </mxCell>
        <mxCell id="5bxqDrjg2q5eDlx1BoxY-41" value="Actor" style="shape=umlActor;verticalLabelPosition=bottom;verticalAlign=top;html=1;outlineConnect=0;" parent="1" vertex="1">
          <mxGeometry x="185" y="440" width="70" height="130" as="geometry" />
        </mxCell>
        <mxCell id="5bxqDrjg2q5eDlx1BoxY-42" value="" style="ellipse;whiteSpace=wrap;html=1;aspect=fixed;" parent="1" vertex="1">
          <mxGeometry x="255" y="469" width="36" height="36" as="geometry" />
        </mxCell>
        <mxCell id="5bxqDrjg2q5eDlx1BoxY-43" value="" style="ellipse;whiteSpace=wrap;html=1;aspect=fixed;" parent="1" vertex="1">
          <mxGeometry x="105" y="447" width="80" height="80" as="geometry" />
        </mxCell>
        <mxCell id="5bxqDrjg2q5eDlx1BoxY-45" value="" style="rounded=1;whiteSpace=wrap;html=1;" parent="1" vertex="1">
          <mxGeometry x="380" y="440" width="20" height="45" as="geometry" />
        </mxCell>
        <mxCell id="5bxqDrjg2q5eDlx1BoxY-46" value="" style="triangle;whiteSpace=wrap;html=1;rotation=-180;" parent="1" vertex="1">
          <mxGeometry x="425" y="422.5" width="45" height="82.5" as="geometry" />
        </mxCell>
        <mxCell id="5bxqDrjg2q5eDlx1BoxY-48" value="" style="rounded=0;whiteSpace=wrap;html=1;" parent="1" vertex="1">
          <mxGeometry x="470" y="422.5" width="170" height="87.5" as="geometry" />
        </mxCell>
        <mxCell id="5bxqDrjg2q5eDlx1BoxY-51" value="&lt;h1 style=&quot;margin-top: 0px;&quot;&gt;Twist&lt;/h1&gt;&lt;p&gt;To Dodge left and right&lt;/p&gt;" style="text;html=1;whiteSpace=wrap;overflow=hidden;rounded=0;" parent="1" vertex="1">
          <mxGeometry x="480" y="427" width="180" height="120" as="geometry" />
        </mxCell>
        <mxCell id="5bxqDrjg2q5eDlx1BoxY-52" value="" style="shape=flexArrow;endArrow=classic;html=1;rounded=0;entryX=0.5;entryY=1;entryDx=0;entryDy=0;" parent="1" edge="1">
          <mxGeometry width="50" height="50" relative="1" as="geometry">
            <mxPoint x="400" y="786.5" as="sourcePoint" />
            <mxPoint x="350" y="660" as="targetPoint" />
          </mxGeometry>
        </mxCell>
        <mxCell id="5bxqDrjg2q5eDlx1BoxY-54" value="" style="rounded=0;whiteSpace=wrap;html=1;" parent="1" vertex="1">
          <mxGeometry x="355.5" y="752.5" width="74.5" height="87.5" as="geometry" />
        </mxCell>
        <mxCell id="5bxqDrjg2q5eDlx1BoxY-55" value="&lt;h1 style=&quot;margin-top: 0px;&quot;&gt;Tap&lt;/h1&gt;&lt;p&gt;To punch&lt;/p&gt;" style="text;html=1;whiteSpace=wrap;overflow=hidden;rounded=0;" parent="1" vertex="1">
          <mxGeometry x="367.75" y="752.5" width="180" height="120" as="geometry" />
        </mxCell>
        <mxCell id="tm_JHD7YSAXxN9VD0eP0-36" value="&lt;b&gt;&lt;font style=&quot;font-size: 20px;&quot;&gt;Orphan Funeral Wrist Watch&lt;/font&gt;&lt;/b&gt;&lt;div&gt;&lt;font style=&quot;font-size: 20px;&quot;&gt;1800s Orphan Simulator&lt;/font&gt;&lt;/div&gt;&lt;div&gt;&lt;span style=&quot;font-size: 20px;&quot;&gt;Consisting of dark humour mini-games&lt;/span&gt;&lt;/div&gt;&lt;div&gt;&lt;span style=&quot;font-size: 20px;&quot;&gt;Infant Mortality was 2/5&lt;/span&gt;&lt;/div&gt;&lt;div&gt;&lt;span style=&quot;font-size: 20px;&quot;&gt;So lets see if we can&#39;t keep those numbers up&lt;/span&gt;&lt;/div&gt;&lt;div&gt;&lt;span style=&quot;font-size: 20px;&quot;&gt;In this game you will have to defend your child from&lt;/span&gt;&lt;/div&gt;&lt;div&gt;&lt;span style=&quot;font-size: 20px;&quot;&gt;Tuberculosis, Consumption, Whooping Cough,&lt;br&gt;Ouija Boards, Nefarious Ne&#39;er-do-wells,&lt;/span&gt;&lt;/div&gt;&lt;div&gt;&lt;span style=&quot;font-size: 20px;&quot;&gt;resource scarcity, and other Orphans.&lt;br&gt;To name a few.&lt;/span&gt;&lt;/div&gt;&lt;div&gt;&lt;span style=&quot;font-size: 20px;&quot;&gt;Compete online to secure executive epitaphs!&lt;/span&gt;&lt;/div&gt;" style="rounded=0;whiteSpace=wrap;html=1;" vertex="1" parent="1">
          <mxGeometry x="50" y="11" width="540" height="309" as="geometry" />
        </mxCell>
      </root>
    </mxGraphModel>
  </diagram>
</mxfile>
